<?xml version="1.0" encoding="UTF-8"?>
<svg width="533.51251" height="447.65628" xmlns="http://www.w3.org/2000/svg">
 <g fill="#fff" stroke="#000" stroke-width=".7">
  <circle cx="333.16251" cy="223.82816" r="200"/>
  <circle cx="495.46591" cy="341.74847" r=".61803401"/>
  <circle cx="496.08481" cy="341.4729" r=".059470348"/>
  <circle cx="496.09091" cy="342.20258" r=".1545085"/>
  <circle cx="495.39511" cy="342.42227" r=".059470348"/>
  <circle cx="487.01834" cy="352.9285" r=".84449416"/>
  <circle cx="487.88821" cy="352.61188" r=".081261493"/>
  <circle cx="487.82693" cy="353.60706" r=".21112354"/>
  <circle cx="488.02914" cy="353.77667" r=".052780885"/>
  <circle cx="486.85757" cy="353.84021" r=".081261493"/>
  <circle cx="475.42947" cy="366.09512" r="1.1958858"/>
  <circle cx="476.31247" cy="365.21213" r=".052851181"/>
  <circle cx="476.69577" cy="365.75583" r=".11507416"/>
  <circle cx="476.48648" cy="367.15216" r=".29897144"/>
  <circle cx="476.75076" cy="367.41641" r=".074742861"/>
  <circle cx="475.09018" cy="367.36142" r=".11507416"/>
  <circle cx="474.54648" cy="366.97812" r=".052851181"/>
  <circle cx="458.96463" cy="381.57904" r="1.770954"/>
  <circle cx="460.41043" cy="380.42606" r=".078265853"/>
  <circle cx="460.88431" cy="381.2897" r=".17041013"/>
  <circle cx="460.73672" cy="382.06812" r=".067371093"/>
  <circle cx="460.34488" cy="383.30978" r=".4427385"/>
  <circle cx="460.68991" cy="383.74246" r=".11068463"/>
  <circle cx="459.04709" cy="383.41553" r=".067371093"/>
  <circle cx="458.2554" cy="383.3862" r=".17041013"/>
  <circle cx="457.51889" cy="382.73199" r=".078265853"/>
  <circle cx="434.55139" cy="399.43887" r="2.7777777"/>
  <circle cx="436.4538" cy="397.32605" r=".065309472"/>
  <circle cx="437.06332" cy="397.98859" r=".12276159"/>
  <circle cx="437.59647" cy="399.43887" r=".26729178"/>
  <circle cx="437.93057" cy="399.43887" r=".066822946"/>
  <circle cx="437.18555" cy="400.61166" r=".10567295"/>
  <circle cx="436.89218" cy="401.03476" r=".055268023"/>
  <circle cx="436.28751" cy="402.44589" r=".69444442"/>
  <circle cx="437.04877" cy="402.44589" r=".066822946"/>
  <circle cx="436.72153" cy="403.19766" r=".1736111"/>
  <circle cx="435.90686" cy="403.10516" r=".066822946"/>
  <circle cx="434.76312" cy="402.26398" r=".055268023"/>
  <circle cx="434.25" cy="402.30652" r=".10567295"/>
  <circle cx="433.02887" cy="402.07596" r=".26729178"/>
  <circle cx="432.86182" cy="402.36533" r=".066822946"/>
  <circle cx="432.03946" cy="400.88913" r=".12276159"/>
  <circle cx="431.77045" cy="400.02997" r=".065309472"/>
  <circle cx="396.41898" cy="418.5116" r="4.702282"/>
  <circle cx="399.60913" cy="414.9686" r=".065309472"/>
  <circle cx="400.31265" cy="415.68268" r=".11055728"/>
  <circle cx="401.08878" cy="416.99429" r=".20781347"/>
  <circle cx="401.33582" cy="416.91403" r=".051953368"/>
  <circle cx="401.17706" cy="418.08337" r=".075028412"/>
  <circle cx="401.46112" cy="419.58334" r=".45247731"/>
  <circle cx="402.01434" cy="419.70093" r=".11311933"/>
  <circle cx="400.66925" cy="420.67722" r=".067880347"/>
  <circle cx="400.36795" cy="421.38068" r=".17888544"/>
  <circle cx="399.73322" cy="421.978" r=".0935589"/>
  <circle cx="399.34921" cy="422.26208" r=".057170913"/>
  <circle cx="398.23535" cy="424.10178" r="1.1755705"/>
  <circle cx="399.4028" cy="423.72244" r=".051953368"/>
  <circle cx="399.49588" cy="424.36969" r=".11311933"/>
  <circle cx="398.68942" cy="425.4993" r=".29389262"/>
  <circle cx="398.80295" cy="425.84869" r=".073473155"/>
  <circle cx="397.37305" cy="425.05945" r=".11311933"/>
  <circle cx="397.0679" cy="424.48108" r=".051953368"/>
  <circle cx="396.2529" cy="423.26816" r=".057170913"/>
  <circle cx="395.77524" cy="423.26404" r=".0935589"/>
  <circle cx="394.91061" cy="423.15387" r=".17888544"/>
  <circle cx="394.25339" cy="422.76184" r=".067880347"/>
  <circle cx="392.96979" cy="422.34232" r=".45247731"/>
  <circle cx="392.59134" cy="422.76263" r=".11311933"/>
  <circle cx="392.3179" cy="420.96188" r=".075028412"/>
  <circle cx="391.74921" cy="420.0289" r=".20781347"/>
  <circle cx="391.50217" cy="420.10916" r=".051953368"/>
  <circle cx="391.60614" cy="418.5116" r=".11055728"/>
  <circle cx="391.75558" cy="417.52036" r=".065309472"/>
  <circle cx="368.16776" cy="422.35272" r="1.58713"/>
  <circle cx="369.79984" cy="422.06494" r=".070141897"/>
  <circle cx="369.80267" cy="422.94778" r=".15272164"/>
  <circle cx="369.35287" cy="423.49719" r=".060378008"/>
  <circle cx="368.51224" cy="424.30649" r=".39678249"/>
  <circle cx="368.59836" cy="424.79495" r=".099195622"/>
  <circle cx="367.44553" cy="423.8335" r=".060378008"/>
  <circle cx="366.83493" cy="423.47107" r=".15272164"/>
  <circle cx="366.53564" cy="422.6405" r=".070141897"/>
  <circle cx="333.16251" cy="432.66699" r="8.8388348"/>
  <circle cx="339.44989" cy="426.37961" r=".052851181"/>
  <circle cx="340.13419" cy="427.10727" r=".078265853"/>
  <circle cx="340.92346" cy="428.18619" r=".12276159"/>
  <circle cx="341.76639" cy="429.87143" r=".20781347"/>
  <circle cx="342.01343" cy="429.79114" r=".051953368"/>
  <circle cx="341.93613" cy="431.11996" r=".070141897"/>
  <circle cx="342.39197" cy="432.66699" r=".390625"/>
  <circle cx="342.88025" cy="432.66699" r=".09765625"/>
  <circle cx="341.91724" cy="434.66519" r=".14103019"/>
  <circle cx="341.63675" cy="435.42044" r=".071507677"/>
  <circle cx="341.55374" cy="437.51169" r=".85051727"/>
  <circle cx="342.36118" cy="437.0455" r=".081841059"/>
  <circle cx="342.47446" cy="438.04324" r=".21262932"/>
  <circle cx="342.70462" cy="438.17612" r=".05315733"/>
  <circle cx="341.55374" cy="438.444" r=".081841059"/>
  <circle cx="339.50272" cy="439.00723" r=".12759404"/>
  <circle cx="338.55548" cy="440.08981" r=".33624926"/>
  <circle cx="338.80255" cy="440.42984" r=".084062316"/>
  <circle cx="337.07382" cy="440.78897" r=".17586178"/>
  <circle cx="336.22232" cy="441.07376" r=".10746362"/>
  <circle cx="333.16251" cy="443.71555" r="2.2097087"/>
  <circle cx="335.31348" cy="443.01663" r=".051953368"/>
  <circle cx="335.46988" cy="443.71555" r=".09765625"/>
  <circle cx="335.26031" cy="444.92673" r=".21262932"/>
  <circle cx="335.49048" cy="445.0596" r=".05315733"/>
  <circle cx="334.51074" cy="445.57126" r=".084062316"/>
  <circle cx="333.16251" cy="446.47769" r=".55242717"/>
  <circle cx="333.68695" cy="446.78049" r=".05315733"/>
  <circle cx="333.16251" cy="447.16818" r=".13810679"/>
  <circle cx="332.63806" cy="446.78049" r=".05315733"/>
  <circle cx="331.81427" cy="445.57126" r=".084062316"/>
  <circle cx="331.0647" cy="444.92673" r=".21262932"/>
  <circle cx="330.83453" cy="445.0596" r=".05315733"/>
  <circle cx="330.85513" cy="443.71555" r=".09765625"/>
  <circle cx="331.01154" cy="443.01663" r=".051953368"/>
  <circle cx="330.10269" cy="441.07376" r=".10746362"/>
  <circle cx="329.25119" cy="440.78897" r=".17586178"/>
  <circle cx="327.76953" cy="440.08981" r=".33624926"/>
  <circle cx="327.52246" cy="440.42984" r=".084062316"/>
  <circle cx="326.8223" cy="439.00723" r=".12759404"/>
  <circle cx="324.77127" cy="437.51169" r=".85051727"/>
  <circle cx="324.77127" cy="438.444" r=".081841059"/>
  <circle cx="323.85056" cy="438.04324" r=".21262932"/>
  <circle cx="323.62039" cy="438.17612" r=".05315733"/>
  <circle cx="323.96384" cy="437.0455" r=".081841059"/>
  <circle cx="324.68826" cy="435.42044" r=".071507677"/>
  <circle cx="324.40778" cy="434.66519" r=".14103019"/>
  <circle cx="323.93304" cy="432.66699" r=".390625"/>
  <circle cx="323.44476" cy="432.66699" r=".09765625"/>
  <circle cx="324.38889" cy="431.11996" r=".070141897"/>
  <circle cx="324.55862" cy="429.87143" r=".20781347"/>
  <circle cx="324.31158" cy="429.79114" r=".051953368"/>
  <circle cx="325.40155" cy="428.18619" r=".12276159"/>
  <circle cx="326.19083" cy="427.10727" r=".078265853"/>
  <circle cx="326.87512" cy="426.37961" r=".052851181"/>
  <circle cx="287.94821" cy="421.92487" r="3.191149"/>
  <circle cx="291.20126" cy="421.63211" r=".075028412"/>
  <circle cx="291.19687" cy="422.66635" r=".14103019"/>
  <circle cx="290.86923" cy="423.33154" r=".050917156"/>
  <circle cx="290.5126" cy="424.30426" r=".30706844"/>
  <circle cx="290.79398" cy="424.56534" r=".076767109"/>
  <circle cx="289.25012" cy="424.97086" r=".12139852"/>
  <circle cx="288.67245" cy="425.09793" r=".063492656"/>
  <circle cx="287.06061" cy="425.81381" r=".79778725"/>
  <circle cx="287.70169" cy="426.40866" r=".076767109"/>
  <circle cx="286.83868" cy="426.78604" r=".19944681"/>
  <circle cx="286.22491" cy="426.07159" r=".076767109"/>
  <circle cx="285.91898" cy="424.46945" r=".063492656"/>
  <circle cx="285.45364" cy="424.10434" r=".12139852"/>
  <circle cx="284.60541" cy="422.95599" r=".30706844"/>
  <circle cx="284.23865" cy="423.06912" r=".076767109"/>
  <circle cx="284.70615" cy="421.92487" r=".050917156"/>
  <circle cx="284.69958" cy="421.18341" r=".14103019"/>
  <circle cx="285.14438" cy="420.24966" r=".075028412"/>
  <circle cx="270.8591" cy="415.57831" r="1.618034"/>
  <circle cx="272.46594" cy="416.1004" r=".071507677"/>
  <circle cx="272.04596" cy="416.89642" r=".15569539"/>
  <circle cx="271.37814" cy="417.17569" r=".061553672"/>
  <circle cx="270.2341" cy="417.50186" r=".4045085"/>
  <circle cx="270.07785" cy="417.98273" r=".10112713"/>
  <circle cx="269.50031" cy="416.56555" r=".061553672"/>
  <circle cx="269.12415" cy="415.94708" r=".15569539"/>
  <circle cx="269.25226" cy="415.05621" r=".071507677"/>
  <circle cx="223.54001" cy="413.69989" r="19.245008"/>
  <circle cx="241.17551" cy="405.84805" r=".059470348"/>
  <circle cx="241.70074" cy="407.08994" r=".081261493"/>
  <circle cx="242.24042" cy="408.68915" r=".11507416"/>
  <circle cx="242.73856" cy="410.80618" r=".17041013"/>
  <circle cx="243.05231" cy="413.69989" r=".26729178"/>
  <circle cx="243.38641" cy="413.69989" r=".066822946"/>
  <circle cx="242.80704" cy="417.79523" r=".45247731"/>
  <circle cx="243.36029" cy="417.91284" r=".11311933"/>
  <circle cx="241.76791" cy="420.33432" r=".15272164"/>
  <circle cx="240.94324" cy="423.74768" r=".85051727"/>
  <circle cx="241.75067" cy="423.28149" r=".081841059"/>
  <circle cx="241.86395" cy="424.27924" r=".21262932"/>
  <circle cx="242.09412" cy="424.41214" r=".05315733"/>
  <circle cx="240.94324" cy="424.68002" r=".081841059"/>
  <circle cx="237.87268" cy="426.99869" r=".30706844"/>
  <circle cx="238.15405" cy="427.25977" r=".076767109"/>
  <circle cx="236.52161" cy="428.11743" r=".15569539"/>
  <circle cx="234.08844" cy="431.97031" r="1.8518518"/>
  <circle cx="235.76306" cy="431.00348" r=".081841059"/>
  <circle cx="236.11847" cy="431.97031" r=".17819452"/>
  <circle cx="235.84454" cy="432.7522" r=".07044863"/>
  <circle cx="235.24585" cy="433.97501" r=".46296296"/>
  <circle cx="235.53519" cy="434.47617" r=".11574074"/>
  <circle cx="233.88748" cy="433.88208" r=".07044863"/>
  <circle cx="233.07339" cy="433.72839" r=".17819452"/>
  <circle cx="232.41382" cy="432.93716" r=".081841059"/>
  <circle cx="228.59286" cy="432.5575" r=".27781358"/>
  <circle cx="228.68277" cy="432.89294" r=".069453396"/>
  <circle cx="225.62817" cy="433.5676" r=".73212367"/>
  <circle cx="226.36136" cy="433.89404" r=".07044863"/>
  <circle cx="225.72385" cy="434.47775" r=".18303092"/>
  <circle cx="224.97888" cy="434.03934" r=".07044863"/>
  <circle cx="222.07321" cy="433.27295" r=".38290808"/>
  <circle cx="222.03745" cy="433.75024" r=".095727019"/>
  <circle cx="220.1575" cy="432.88297" r=".23398313"/>
  <circle cx="220.10672" cy="433.17099" r=".058495782"/>
  <circle cx="211.51187" cy="434.53323" r="4.8112521"/>
  <circle cx="216.38995" cy="434.53323" r=".066822946"/>
  <circle cx="216.32864" cy="435.55707" r=".11311933"/>
  <circle cx="215.86267" cy="437.0452" r=".21262932"/>
  <circle cx="216.09286" cy="437.17807" r=".05315733"/>
  <circle cx="215.09503" cy="437.85794" r=".076767109"/>
  <circle cx="214.14899" cy="439.10086" r=".46296296"/>
  <circle cx="214.43832" cy="439.60202" r=".11574074"/>
  <circle cx="212.77509" cy="439.24765" r=".069453396"/>
  <circle cx="212.03391" cy="439.50015" r=".18303092"/>
  <circle cx="211.14517" cy="439.42648" r=".095727019"/>
  <circle cx="210.66626" cy="439.32901" r=".058495782"/>
  <circle cx="208.50485" cy="439.74155" r="1.202813"/>
  <circle cx="209.59253" cy="440.36954" r=".05315733"/>
  <circle cx="209.16412" cy="440.88345" r=".11574074"/>
  <circle cx="207.75308" cy="441.04367" r=".30070326"/>
  <circle cx="207.18628" cy="439.74155" r=".11574074"/>
  <circle cx="207.41714" cy="439.11356" r=".05315733"/>
  <circle cx="207.78143" cy="437.66342" r=".058495782"/>
  <circle cx="207.45752" cy="437.29745" r=".095727019"/>
  <circle cx="206.94937" cy="436.56461" r=".18303092"/>
  <circle cx="206.79749" cy="435.79645" r=".069453396"/>
  <circle cx="206.23767" cy="434.53323" r=".46296296"/>
  <circle cx="205.65897" cy="434.53323" r=".11574074"/>
  <circle cx="206.841" cy="433.09247" r=".076767109"/>
  <circle cx="207.16107" cy="432.0213" r=".21262932"/>
  <circle cx="206.93088" cy="431.8884" r=".05315733"/>
  <circle cx="208.21683" cy="430.87372" r=".11311933"/>
  <circle cx="209.07285" cy="430.30869" r=".066822946"/>
  <circle cx="208.61823" cy="426.22076" r=".23398313"/>
  <circle cx="208.39417" cy="426.40875" r=".058495782"/>
  <circle cx="207.32266" cy="424.75671" r=".38290808"/>
  <circle cx="206.92719" cy="425.02634" r=".095727019"/>
  <circle cx="205.28998" cy="421.82535" r=".73212367"/>
  <circle cx="205.20609" cy="422.6235" r=".07044863"/>
  <circle cx="204.45395" cy="422.19757" r=".18303092"/>
  <circle cx="204.64069" cy="421.35361" r=".07044863"/>
  <circle cx="204.6824" cy="418.75278" r=".27781358"/>
  <circle cx="204.34695" cy="418.84265" r=".069453396"/>
  <circle cx="202.44315" cy="413.69989" r="1.8518518"/>
  <circle cx="202.44315" cy="415.63361" r=".081841059"/>
  <circle cx="201.42813" cy="415.45798" r=".17819452"/>
  <circle cx="200.88797" cy="414.8298" r=".07044863"/>
  <circle cx="200.12833" cy="413.69989" r=".46296296"/>
  <circle cx="199.54962" cy="413.69989" r=".11574074"/>
  <circle cx="200.88797" cy="412.57001" r=".07044863"/>
  <circle cx="201.42813" cy="411.94183" r=".17819452"/>
  <circle cx="202.44315" cy="411.7662" r=".081841059"/>
  <circle cx="204.56326" cy="409.66626" r=".15569539"/>
  <circle cx="204.85657" cy="407.93683" r=".30706844"/>
  <circle cx="204.48978" cy="407.8237" r=".076767109"/>
  <circle cx="206.13678" cy="403.65213" r=".85051727"/>
  <circle cx="205.32932" cy="404.11832" r=".081841059"/>
  <circle cx="205.21606" cy="403.12057" r=".21262932"/>
  <circle cx="204.98587" cy="402.98767" r=".05315733"/>
  <circle cx="206.13678" cy="402.71979" r=".081841059"/>
  <circle cx="208.68048" cy="401.23129" r=".15272164"/>
  <circle cx="210.3598" cy="399.06183" r=".45247731"/>
  <circle cx="209.98135" cy="398.64151" r=".11311933"/>
  <circle cx="213.78384" cy="396.80176" r=".26729178"/>
  <circle cx="213.61679" cy="396.51239" r=".066822946"/>
  <circle cx="216.44675" cy="395.62659" r=".17041013"/>
  <circle cx="218.52924" cy="394.99951" r=".11507416"/>
  <circle cx="220.18402" cy="394.66724" r=".081261493"/>
  <circle cx="221.52213" cy="394.50119" r=".059470348"/>
  <circle cx="189.69965" cy="367.29102" r="2.8871236"/>
  <circle cx="192.33258" cy="368.63257" r=".067880347"/>
  <circle cx="191.83136" cy="369.42273" r=".12759404"/>
  <circle cx="190.5188" cy="370.34811" r=".27781358"/>
  <circle cx="190.60867" cy="370.68353" r=".069453396"/>
  <circle cx="189.2308" cy="370.25107" r=".1098327"/>
  <circle cx="188.72711" cy="370.07034" r=".057443619"/>
  <circle cx="187.14777" cy="369.8429" r=".7217809"/>
  <circle cx="187.35255" cy="370.60718" r=".069453396"/>
  <circle cx="186.5098" cy="370.48087" r=".18044522"/>
  <circle cx="186.38348" cy="369.63812" r=".069453396"/>
  <circle cx="186.92032" cy="368.26355" r=".057443619"/>
  <circle cx="186.73959" cy="367.75986" r=".1098327"/>
  <circle cx="186.64255" cy="366.47186" r=".27781358"/>
  <circle cx="186.30711" cy="366.38199" r=".069453396"/>
  <circle cx="187.56792" cy="365.1593" r=".12759404"/>
  <circle cx="188.35811" cy="364.65808" r=".067880347"/>
  <circle cx="165.20374" cy="345.85733" r="7.6084523"/>
  <circle cx="172.60294" cy="347.89938" r=".067371093"/>
  <circle cx="172.25095" cy="348.99496" r=".10567295"/>
  <circle cx="171.50381" cy="350.43463" r=".17888544"/>
  <circle cx="170.72021" cy="351.18457" r=".060378008"/>
  <circle cx="169.87352" cy="352.28473" r=".33624926"/>
  <circle cx="170.12057" cy="352.62479" r=".084062316"/>
  <circle cx="168.24174" cy="352.96515" r=".12139852"/>
  <circle cx="167.5739" cy="353.15195" r=".061553672"/>
  <circle cx="166.07556" cy="354.15222" r=".73212367"/>
  <circle cx="166.80876" cy="354.47867" r=".07044863"/>
  <circle cx="166.17123" cy="355.06238" r=".18303092"/>
  <circle cx="165.42627" cy="354.62396" r=".07044863"/>
  <circle cx="163.99634" cy="353.48059" r=".1098327"/>
  <circle cx="162.76315" cy="353.36868" r=".28944272"/>
  <circle cx="162.65135" cy="353.71277" r=".07236068"/>
  <circle cx="161.5266" cy="352.69061" r=".15138148"/>
  <circle cx="160.89742" cy="352.24173" r=".092504479"/>
  <circle cx="157.50954" cy="351.44751" r="1.9021131"/>
  <circle cx="158.67697" cy="353.05435" r=".084062316"/>
  <circle cx="157.72749" cy="353.52124" r=".18303092"/>
  <circle cx="156.89938" cy="353.32535" r=".07236068"/>
  <circle cx="155.58598" cy="352.84506" r=".47552827"/>
  <circle cx="155.10509" cy="353.19443" r=".11888207"/>
  <circle cx="155.53506" cy="351.44751" r=".07236068"/>
  <circle cx="155.60464" cy="350.5994" r=".18303092"/>
  <circle cx="156.34209" cy="349.84067" r=".084062316"/>
  <circle cx="157.8011" cy="347.98001" r=".092504479"/>
  <circle cx="157.5686" cy="347.24292" r=".15138148"/>
  <circle cx="157.30585" cy="345.85733" r=".28944272"/>
  <circle cx="156.94405" cy="345.85733" r=".07236068"/>
  <circle cx="157.58047" cy="344.64993" r=".1098327"/>
  <circle cx="157.58424" cy="342.46494" r=".73212367"/>
  <circle cx="156.93495" cy="342.93668" r=".07044863"/>
  <circle cx="156.74821" cy="342.09271" r=".18303092"/>
  <circle cx="157.50034" cy="341.66675" r=".07044863"/>
  <circle cx="158.99857" cy="341.34903" r=".061553672"/>
  <circle cx="159.38261" cy="340.77158" r=".12139852"/>
  <circle cx="160.53397" cy="339.42993" r=".33624926"/>
  <circle cx="160.2869" cy="339.0899" r=".084062316"/>
  <circle cx="161.84195" cy="338.96463" r=".060378008"/>
  <circle cx="162.79732" cy="338.45114" r=".17888544"/>
  <circle cx="164.3974" cy="338.18549" r=".10567295"/>
  <circle cx="165.5481" cy="338.18924" r=".067371093"/>
  <circle cx="149.38351" cy="312.33145" r="3.9792976"/>
  <circle cx="152.71703" cy="314.60422" r=".055268023"/>
  <circle cx="152.1981" cy="315.2753" r=".0935589"/>
  <circle cx="151.18636" cy="316.07513" r=".17586178"/>
  <circle cx="150.28311" cy="316.27289" r=".063492656"/>
  <circle cx="149.05753" cy="316.68146" r=".38290808"/>
  <circle cx="149.02176" cy="317.15875" r=".095727019"/>
  <circle cx="148.05026" cy="316.14166" r=".057443619"/>
  <circle cx="147.42612" cy="315.9689" r=".15138148"/>
  <circle cx="146.85309" cy="315.50449" r=".079174049"/>
  <circle cx="144.90198" cy="314.48965" r=".99482441"/>
  <circle cx="144.82048" cy="315.57715" r=".095727019"/>
  <circle cx="143.7816" cy="315.02921" r=".2487061"/>
  <circle cx="143.5015" cy="315.16409" r=".062176526"/>
  <circle cx="144.00093" cy="313.87531" r=".095727019"/>
  <circle cx="145.32504" cy="312.33145" r=".079174049"/>
  <circle cx="145.31921" cy="311.5939" r=".15138148"/>
  <circle cx="145.5733" cy="310.9982" r=".057443619"/>
  <circle cx="145.77928" cy="309.87415" r=".38290808"/>
  <circle cx="145.38382" cy="309.60452" r=".095727019"/>
  <circle cx="146.86287" cy="309.17068" r=".063492656"/>
  <circle cx="147.58066" cy="308.5878" r=".17586178"/>
  <circle cx="148.83679" cy="308.29547" r=".0935589"/>
  <circle cx="149.68501" cy="308.30817" r=".055268023"/>
  <circle cx="142.939" cy="293.06384" r="2.4316242"/>
  <circle cx="144.47125" cy="295.02505" r=".057170913"/>
  <circle cx="143.80742" cy="295.4498" r=".10746362"/>
  <circle cx="142.47612" cy="295.68896" r=".23398313"/>
  <circle cx="142.42534" cy="295.97699" r=".058495782"/>
  <circle cx="141.52753" cy="295.15643" r=".092504479"/>
  <circle cx="140.08278" cy="294.10342" r=".60790604"/>
  <circle cx="139.96706" cy="294.7597" r=".058495782"/>
  <circle cx="139.36873" cy="294.36331" r=".15197651"/>
  <circle cx="139.57228" cy="293.67508" r=".058495782"/>
  <circle cx="140.51265" cy="292.3681" r=".092504479"/>
  <circle cx="140.89703" cy="291.35043" r=".23398313"/>
  <circle cx="140.67297" cy="291.16241" r=".058495782"/>
  <circle cx="142.07059" cy="290.67789" r=".10746362"/>
  <circle cx="142.85214" cy="290.57657" r=".057170913"/>
  <circle cx="83.162498" cy="223.82816" r="50"/>
  <circle cx="123.73835" cy="253.30823" r=".1545085"/>
  <circle cx="121.62646" cy="256.10324" r=".21112354"/>
  <circle cx="121.82861" cy="256.27289" r=".052780885"/>
  <circle cx="118.72924" cy="259.3949" r=".29897144"/>
  <circle cx="118.99349" cy="259.65915" r=".074742861"/>
  <circle cx="114.61303" cy="263.26587" r=".4427385"/>
  <circle cx="114.95809" cy="263.69855" r=".11068463"/>
  <circle cx="108.50973" cy="267.73083" r=".69444442"/>
  <circle cx="109.27099" cy="267.73083" r=".066822946"/>
  <circle cx="108.94375" cy="268.4826" r=".1736111"/>
  <circle cx="108.12908" cy="268.39011" r=".066822946"/>
  <circle cx="98.976616" cy="272.49902" r="1.1755705"/>
  <circle cx="100.14407" cy="272.11969" r=".051953368"/>
  <circle cx="100.23714" cy="272.76694" r=".11311933"/>
  <circle cx="99.430702" cy="273.89655" r=".29389262"/>
  <circle cx="99.544228" cy="274.24594" r=".073473155"/>
  <circle cx="98.114311" cy="273.4567" r=".11311933"/>
  <circle cx="97.809181" cy="272.87833" r=".051953368"/>
  <circle cx="91.913811" cy="273.45929" r=".39678249"/>
  <circle cx="91.999931" cy="273.94775" r=".099195622"/>
  <circle cx="83.162498" cy="276.03787" r="2.2097087"/>
  <circle cx="85.313469" cy="275.33896" r=".051953368"/>
  <circle cx="85.469856" cy="276.03787" r=".09765625"/>
  <circle cx="85.260307" cy="277.24902" r=".21262932"/>
  <circle cx="85.490486" cy="277.38193" r=".05315733"/>
  <circle cx="84.51075" cy="277.89355" r=".084062316"/>
  <circle cx="83.162498" cy="278.79999" r=".55242717"/>
  <circle cx="83.686943" cy="279.10278" r=".05315733"/>
  <circle cx="83.162498" cy="279.49054" r=".13810679"/>
  <circle cx="82.638054" cy="279.10278" r=".05315733"/>
  <circle cx="81.814247" cy="277.89355" r=".084062316"/>
  <circle cx="81.06469" cy="277.24902" r=".21262932"/>
  <circle cx="80.834511" cy="277.38193" r=".05315733"/>
  <circle cx="80.855141" cy="276.03787" r=".09765625"/>
  <circle cx="81.011528" cy="275.33896" r=".051953368"/>
  <circle cx="71.858925" cy="273.35233" r=".79778725"/>
  <circle cx="72.500023" cy="273.94717" r=".076767109"/>
  <circle cx="71.637016" cy="274.32455" r=".19944681"/>
  <circle cx="71.023232" cy="273.61011" r=".076767109"/>
  <circle cx="67.586647" cy="271.76569" r=".4045085"/>
  <circle cx="67.430397" cy="272.24658" r=".10112713"/>
  <circle cx="55.756882" cy="271.29608" r="4.8112521"/>
  <circle cx="60.634949" cy="271.29608" r=".066822946"/>
  <circle cx="60.573631" cy="272.31992" r=".11311933"/>
  <circle cx="60.107681" cy="273.80804" r=".21262932"/>
  <circle cx="60.33786" cy="273.94092" r=".05315733"/>
  <circle cx="59.340042" cy="274.62079" r=".076767109"/>
  <circle cx="58.393982" cy="275.86371" r=".46296296"/>
  <circle cx="58.683342" cy="276.36487" r=".11574074"/>
  <circle cx="57.020088" cy="276.0105" r=".069453396"/>
  <circle cx="56.278915" cy="276.26303" r=".18303092"/>
  <circle cx="55.390175" cy="276.18936" r=".095727019"/>
  <circle cx="54.911247" cy="276.09186" r=".058495782"/>
  <circle cx="52.74984" cy="276.50443" r="1.202813"/>
  <circle cx="53.83754" cy="277.13242" r=".05315733"/>
  <circle cx="53.409119" cy="277.64633" r=".11574074"/>
  <circle cx="51.998085" cy="277.80652" r=".30070326"/>
  <circle cx="51.43129" cy="276.50443" r=".11574074"/>
  <circle cx="51.66214" cy="275.87643" r=".05315733"/>
  <circle cx="52.026428" cy="274.4263" r=".058495782"/>
  <circle cx="51.702538" cy="274.0603" r=".095727019"/>
  <circle cx="51.194366" cy="273.32745" r=".18303092"/>
  <circle cx="51.042465" cy="272.55933" r=".069453396"/>
  <circle cx="50.482658" cy="271.29608" r=".46296296"/>
  <circle cx="49.903961" cy="271.29608" r=".11574074"/>
  <circle cx="51.086021" cy="269.85532" r=".076767109"/>
  <circle cx="51.406067" cy="268.78415" r=".21262932"/>
  <circle cx="51.175888" cy="268.65125" r=".05315733"/>
  <circle cx="52.461815" cy="267.63657" r=".11311933"/>
  <circle cx="53.317825" cy="267.07156" r=".066822946"/>
  <circle cx="47.296776" cy="259.69388" r=".7217809"/>
  <circle cx="47.501572" cy="260.45813" r=".069453396"/>
  <circle cx="46.658821" cy="260.33185" r=".18044522"/>
  <circle cx="46.532509" cy="259.48907" r=".069453396"/>
  <circle cx="41.172806" cy="254.33545" r="1.9021131"/>
  <circle cx="42.340248" cy="255.94229" r=".084062316"/>
  <circle cx="41.390755" cy="256.40918" r=".18303092"/>
  <circle cx="40.56266" cy="256.21329" r=".07236068"/>
  <circle cx="39.249245" cy="255.733" r=".47552827"/>
  <circle cx="38.768372" cy="256.08237" r=".11888207"/>
  <circle cx="39.198341" cy="254.33545" r=".07236068"/>
  <circle cx="39.267937" cy="253.48734" r=".18303092"/>
  <circle cx="40.005356" cy="252.72861" r=".084062316"/>
  <circle cx="37.217751" cy="245.95398" r=".99482441"/>
  <circle cx="37.136246" cy="247.04147" r=".095727019"/>
  <circle cx="36.097366" cy="246.49353" r=".2487061"/>
  <circle cx="35.817268" cy="246.62842" r=".062176526"/>
  <circle cx="36.316696" cy="245.33966" r=".095727019"/>
  <circle cx="35.606621" cy="241.13708" r=".60790604"/>
  <circle cx="35.490906" cy="241.79337" r=".058495782"/>
  <circle cx="34.892555" cy="241.39697" r=".15197651"/>
  <circle cx="35.09613" cy="240.70871" r=".058495782"/>
  <circle cx="20.6625" cy="223.82816" r="12.5"/>
  <circle cx="30.27849" cy="231.89694" r=".052780885"/>
  <circle cx="29.554186" cy="232.71985" r=".074742861"/>
  <circle cx="28.525133" cy="233.68759" r=".11068463"/>
  <circle cx="26.999308" cy="234.80383" r=".1736111"/>
  <circle cx="24.61603" cy="235.99588" r=".29389262"/>
  <circle cx="24.729555" cy="236.34525" r=".073473155"/>
  <circle cx="22.850328" cy="236.23593" r=".099195622"/>
  <circle cx="20.6625" cy="236.88058" r=".55242717"/>
  <circle cx="21.186953" cy="237.18338" r=".05315733"/>
  <circle cx="20.6625" cy="237.57111" r=".13810679"/>
  <circle cx="20.138048" cy="237.18338" r=".05315733"/>
  <circle cx="17.836611" cy="236.2092" r=".19944681"/>
  <circle cx="16.768541" cy="235.81253" r=".10112713"/>
  <circle cx="13.81109" cy="235.69513" r="1.202813"/>
  <circle cx="14.898798" cy="236.32312" r=".05315733"/>
  <circle cx="14.470369" cy="236.83704" r=".11574074"/>
  <circle cx="13.059336" cy="236.99722" r=".30070326"/>
  <circle cx="12.49254" cy="235.69513" r=".11574074"/>
  <circle cx="12.723391" cy="235.06717" r=".05315733"/>
  <circle cx="11.69607" cy="232.79459" r=".18044522"/>
  <circle cx="10.165079" cy="231.45499" r=".47552827"/>
  <circle cx="9.6841908" cy="231.80435" r=".11888207"/>
  <circle cx="9.1763096" cy="229.35962" r=".2487061"/>
  <circle cx="8.8962193" cy="229.49451" r=".062176526"/>
  <circle cx="8.773531" cy="228.1554" r=".15197651"/>
  <circle cx="5.0374999" cy="223.82816" r="3.125"/>
  <circle cx="6.0258803" cy="226.87009" r=".073473155"/>
  <circle cx="5.0374999" cy="227.09125" r=".13810679"/>
  <circle cx="3.3246474" cy="226.79489" r=".30070326"/>
  <circle cx="2.4131408" cy="225.73486" r=".11888207"/>
  <circle cx="2.165956" cy="225.21103" r=".062176526"/>
  <circle cx="1.13125" cy="223.82816" r=".78125"/>
  <circle cx="2.165956" cy="222.44528" r=".062176526"/>
  <circle cx="2.4131408" cy="221.92145" r=".11888207"/>
  <circle cx="3.3246474" cy="220.86142" r=".30070326"/>
  <circle cx="5.0374999" cy="220.56506" r=".13810679"/>
  <circle cx="6.0258803" cy="220.78622" r=".073473155"/>
  <circle cx="8.773531" cy="219.50092" r=".15197651"/>
  <circle cx="9.1763096" cy="218.29669" r=".2487061"/>
  <circle cx="8.8962193" cy="218.1618" r=".062176526"/>
  <circle cx="10.165079" cy="216.20132" r=".47552827"/>
  <circle cx="9.6841908" cy="215.85196" r=".11888207"/>
  <circle cx="11.69607" cy="214.86172" r=".18044522"/>
  <circle cx="13.81109" cy="211.96118" r="1.202813"/>
  <circle cx="12.723391" cy="212.58914" r=".05315733"/>
  <circle cx="12.49254" cy="211.96118" r=".11574074"/>
  <circle cx="13.059336" cy="210.65909" r=".30070326"/>
  <circle cx="14.470369" cy="210.81927" r=".11574074"/>
  <circle cx="14.898798" cy="211.33319" r=".05315733"/>
  <circle cx="16.768541" cy="211.84378" r=".10112713"/>
  <circle cx="17.836611" cy="211.44711" r=".19944681"/>
  <circle cx="20.6625" cy="210.77573" r=".55242717"/>
  <circle cx="20.138048" cy="210.47293" r=".05315733"/>
  <circle cx="20.6625" cy="210.08521" r=".13810679"/>
  <circle cx="21.186953" cy="210.47293" r=".05315733"/>
  <circle cx="22.850328" cy="211.42038" r=".099195622"/>
  <circle cx="24.61603" cy="211.66043" r=".29389262"/>
  <circle cx="24.729555" cy="211.31107" r=".073473155"/>
  <circle cx="26.999308" cy="212.85248" r=".1736111"/>
  <circle cx="28.525133" cy="213.96872" r=".11068463"/>
  <circle cx="29.554186" cy="214.93646" r=".074742861"/>
  <circle cx="30.27849" cy="215.75937" r=".052780885"/>
  <circle cx="35.606621" cy="206.51923" r=".60790604"/>
  <circle cx="35.09613" cy="206.9476" r=".058495782"/>
  <circle cx="34.892555" cy="206.25934" r=".15197651"/>
  <circle cx="35.490906" cy="205.86295" r=".058495782"/>
  <circle cx="37.217751" cy="201.70233" r=".99482441"/>
  <circle cx="36.316696" cy="202.31665" r=".095727019"/>
  <circle cx="36.097366" cy="201.16278" r=".2487061"/>
  <circle cx="35.817268" cy="201.02789" r=".062176526"/>
  <circle cx="37.136246" cy="200.61484" r=".095727019"/>
  <circle cx="41.172806" cy="193.32086" r="1.9021131"/>
  <circle cx="40.005356" cy="194.9277" r=".084062316"/>
  <circle cx="39.267937" cy="194.16898" r=".18303092"/>
  <circle cx="39.198341" cy="193.32086" r=".07236068"/>
  <circle cx="39.249245" cy="191.92331" r=".47552827"/>
  <circle cx="38.768372" cy="191.57394" r=".11888207"/>
  <circle cx="40.56266" cy="191.44302" r=".07236068"/>
  <circle cx="41.390755" cy="191.24713" r=".18303092"/>
  <circle cx="42.340248" cy="191.71402" r=".084062316"/>
  <circle cx="47.296776" cy="187.96243" r=".7217809"/>
  <circle cx="46.532509" cy="188.16724" r=".069453396"/>
  <circle cx="46.658821" cy="187.32446" r=".18044522"/>
  <circle cx="47.501572" cy="187.19818" r=".069453396"/>
  <circle cx="55.756882" cy="176.36021" r="4.8112521"/>
  <circle cx="53.317825" cy="180.58475" r=".066822946"/>
  <circle cx="52.461815" cy="180.01974" r=".11311933"/>
  <circle cx="51.406067" cy="178.87216" r=".21262932"/>
  <circle cx="51.175888" cy="179.00505" r=".05315733"/>
  <circle cx="51.086021" cy="177.80099" r=".076767109"/>
  <circle cx="50.482658" cy="176.36021" r=".46296296"/>
  <circle cx="49.903961" cy="176.36021" r=".11574074"/>
  <circle cx="51.042465" cy="175.097" r=".069453396"/>
  <circle cx="51.194366" cy="174.32886" r=".18303092"/>
  <circle cx="51.702538" cy="173.59602" r=".095727019"/>
  <circle cx="52.026428" cy="173.23001" r=".058495782"/>
  <circle cx="52.74984" cy="171.15189" r="1.202813"/>
  <circle cx="51.66214" cy="171.77988" r=".05315733"/>
  <circle cx="51.43129" cy="171.15189" r=".11574074"/>
  <circle cx="51.998085" cy="169.84981" r=".30070326"/>
  <circle cx="53.409119" cy="170.00998" r=".11574074"/>
  <circle cx="53.83754" cy="170.5239" r=".05315733"/>
  <circle cx="54.911247" cy="171.56445" r=".058495782"/>
  <circle cx="55.390175" cy="171.46696" r=".095727019"/>
  <circle cx="56.278915" cy="171.3933" r=".18303092"/>
  <circle cx="57.020088" cy="171.64581" r=".069453396"/>
  <circle cx="58.393982" cy="171.79262" r=".46296296"/>
  <circle cx="58.683342" cy="171.29144" r=".11574074"/>
  <circle cx="59.340042" cy="173.03552" r=".076767109"/>
  <circle cx="60.107681" cy="173.84828" r=".21262932"/>
  <circle cx="60.33786" cy="173.71538" r=".05315733"/>
  <circle cx="60.573631" cy="175.33638" r=".11311933"/>
  <circle cx="60.634949" cy="176.36021" r=".066822946"/>
  <circle cx="67.586647" cy="175.89062" r=".4045085"/>
  <circle cx="67.430397" cy="175.40973" r=".10112713"/>
  <circle cx="71.858925" cy="174.30397" r=".79778725"/>
  <circle cx="71.023232" cy="174.04619" r=".076767109"/>
  <circle cx="71.637016" cy="173.33174" r=".19944681"/>
  <circle cx="72.500023" cy="173.70912" r=".076767109"/>
  <circle cx="83.162498" cy="171.61845" r="2.2097087"/>
  <circle cx="81.011528" cy="172.31734" r=".051953368"/>
  <circle cx="80.855141" cy="171.61845" r=".09765625"/>
  <circle cx="81.06469" cy="170.40727" r=".21262932"/>
  <circle cx="80.834511" cy="170.27438" r=".05315733"/>
  <circle cx="81.814247" cy="169.76274" r=".084062316"/>
  <circle cx="83.162498" cy="168.85631" r=".55242717"/>
  <circle cx="82.638054" cy="168.55351" r=".05315733"/>
  <circle cx="83.162498" cy="168.16577" r=".13810679"/>
  <circle cx="83.686943" cy="168.55351" r=".05315733"/>
  <circle cx="84.51075" cy="169.76274" r=".084062316"/>
  <circle cx="85.260307" cy="170.40727" r=".21262932"/>
  <circle cx="85.490486" cy="170.27438" r=".05315733"/>
  <circle cx="85.469856" cy="171.61845" r=".09765625"/>
  <circle cx="85.313469" cy="172.31734" r=".051953368"/>
  <circle cx="91.913811" cy="174.19701" r=".39678249"/>
  <circle cx="91.999931" cy="173.70857" r=".099195622"/>
  <circle cx="98.976616" cy="175.1573" r="1.1755705"/>
  <circle cx="97.809181" cy="174.77797" r=".051953368"/>
  <circle cx="98.114311" cy="174.19962" r=".11311933"/>
  <circle cx="99.430702" cy="173.75975" r=".29389262"/>
  <circle cx="99.544228" cy="173.41037" r=".073473155"/>
  <circle cx="100.23714" cy="174.88936" r=".11311933"/>
  <circle cx="100.14407" cy="175.53662" r=".051953368"/>
  <circle cx="108.50973" cy="179.92548" r=".69444442"/>
  <circle cx="108.12908" cy="179.2662" r=".066822946"/>
  <circle cx="108.94375" cy="179.17372" r=".1736111"/>
  <circle cx="109.27099" cy="179.92548" r=".066822946"/>
  <circle cx="114.61303" cy="184.39044" r=".4427385"/>
  <circle cx="114.95809" cy="183.95776" r=".11068463"/>
  <circle cx="118.72924" cy="188.26141" r=".29897144"/>
  <circle cx="118.99349" cy="187.99716" r=".074742861"/>
  <circle cx="121.62646" cy="191.55307" r=".21112354"/>
  <circle cx="121.82861" cy="191.38342" r=".052780885"/>
  <circle cx="123.73835" cy="194.34808" r=".1545085"/>
  <circle cx="142.939" cy="154.59247" r="2.4316242"/>
  <circle cx="142.85214" cy="157.07974" r=".057170913"/>
  <circle cx="142.07059" cy="156.97842" r=".10746362"/>
  <circle cx="140.89703" cy="156.30588" r=".23398313"/>
  <circle cx="140.67297" cy="156.49388" r=".058495782"/>
  <circle cx="140.51265" cy="155.28821" r=".092504479"/>
  <circle cx="140.08278" cy="153.55289" r=".60790604"/>
  <circle cx="139.57228" cy="153.98123" r=".058495782"/>
  <circle cx="139.36873" cy="153.29298" r=".15197651"/>
  <circle cx="139.96706" cy="152.89661" r=".058495782"/>
  <circle cx="141.52753" cy="152.49986" r=".092504479"/>
  <circle cx="142.47612" cy="151.96735" r=".23398313"/>
  <circle cx="142.42534" cy="151.67932" r=".058495782"/>
  <circle cx="143.80742" cy="152.2065" r=".10746362"/>
  <circle cx="144.47125" cy="152.63127" r=".057170913"/>
  <circle cx="149.38351" cy="135.32486" r="3.9792976"/>
  <circle cx="149.68501" cy="139.34814" r=".055268023"/>
  <circle cx="148.83679" cy="139.36086" r=".0935589"/>
  <circle cx="147.58066" cy="139.06853" r=".17586178"/>
  <circle cx="146.86287" cy="138.48564" r=".063492656"/>
  <circle cx="145.77928" cy="137.78217" r=".38290808"/>
  <circle cx="145.38382" cy="138.0518" r=".095727019"/>
  <circle cx="145.5733" cy="136.65811" r=".057443619"/>
  <circle cx="145.31921" cy="136.06242" r=".15138148"/>
  <circle cx="145.32504" cy="135.32486" r=".079174049"/>
  <circle cx="144.90198" cy="133.16667" r=".99482441"/>
  <circle cx="144.00093" cy="133.78099" r=".095727019"/>
  <circle cx="143.7816" cy="132.62712" r=".2487061"/>
  <circle cx="143.5015" cy="132.49223" r=".062176526"/>
  <circle cx="144.82048" cy="132.07916" r=".095727019"/>
  <circle cx="146.85309" cy="132.15181" r=".079174049"/>
  <circle cx="147.42612" cy="131.68739" r=".15138148"/>
  <circle cx="148.05026" cy="131.51465" r=".057443619"/>
  <circle cx="149.05753" cy="130.97485" r=".38290808"/>
  <circle cx="149.02176" cy="130.49754" r=".095727019"/>
  <circle cx="150.28311" cy="131.38342" r=".063492656"/>
  <circle cx="151.18636" cy="131.58119" r=".17586178"/>
  <circle cx="152.1981" cy="132.38101" r=".0935589"/>
  <circle cx="152.71703" cy="133.05211" r=".055268023"/>
  <circle cx="165.20374" cy="101.79897" r="7.6084523"/>
  <circle cx="165.5481" cy="109.46706" r=".067371093"/>
  <circle cx="164.3974" cy="109.47084" r=".10567295"/>
  <circle cx="162.79732" cy="109.20517" r=".17888544"/>
  <circle cx="161.84195" cy="108.69167" r=".060378008"/>
  <circle cx="160.53397" cy="108.22637" r=".33624926"/>
  <circle cx="160.2869" cy="108.56641" r=".084062316"/>
  <circle cx="159.38261" cy="106.88474" r=".12139852"/>
  <circle cx="158.99857" cy="106.30728" r=".061553672"/>
  <circle cx="157.58424" cy="105.19139" r=".73212367"/>
  <circle cx="157.50034" cy="105.98956" r=".07044863"/>
  <circle cx="156.74821" cy="105.56362" r=".18303092"/>
  <circle cx="156.93495" cy="104.71965" r=".07044863"/>
  <circle cx="157.58047" cy="103.00638" r=".1098327"/>
  <circle cx="157.30585" cy="101.79897" r=".28944272"/>
  <circle cx="156.94405" cy="101.79897" r=".07236068"/>
  <circle cx="157.5686" cy="100.41339" r=".15138148"/>
  <circle cx="157.8011" cy="99.6763" r=".092504479"/>
  <circle cx="157.50954" cy="96.208801" r="1.9021131"/>
  <circle cx="156.34209" cy="97.815643" r=".084062316"/>
  <circle cx="155.60464" cy="97.0569" r=".18303092"/>
  <circle cx="155.53506" cy="96.208801" r=".07236068"/>
  <circle cx="155.58598" cy="94.811264" r=".47552827"/>
  <circle cx="155.10509" cy="94.461868" r=".11888207"/>
  <circle cx="156.89938" cy="94.330963" r=".07236068"/>
  <circle cx="157.72749" cy="94.135071" r=".18303092"/>
  <circle cx="158.67697" cy="94.601944" r=".084062316"/>
  <circle cx="160.89742" cy="95.414581" r=".092504479"/>
  <circle cx="161.5266" cy="94.965698" r=".15138148"/>
  <circle cx="162.76315" cy="94.287628" r=".28944272"/>
  <circle cx="162.65135" cy="93.943527" r=".07236068"/>
  <circle cx="163.99634" cy="94.175705" r=".1098327"/>
  <circle cx="166.07556" cy="93.504089" r=".73212367"/>
  <circle cx="165.42627" cy="93.032349" r=".07044863"/>
  <circle cx="166.17123" cy="92.593948" r=".18303092"/>
  <circle cx="166.80876" cy="93.177643" r=".07044863"/>
  <circle cx="167.5739" cy="94.504364" r=".061553672"/>
  <circle cx="168.24174" cy="94.691162" r=".12139852"/>
  <circle cx="169.87352" cy="95.371567" r=".33624926"/>
  <circle cx="170.12057" cy="95.031525" r=".084062316"/>
  <circle cx="170.72021" cy="96.471756" r=".060378008"/>
  <circle cx="171.50381" cy="97.22168" r=".17888544"/>
  <circle cx="172.25095" cy="98.661346" r=".10567295"/>
  <circle cx="172.60294" cy="99.756912" r=".067371093"/>
  <circle cx="189.69965" cy="80.365295" r="2.8871236"/>
  <circle cx="188.35811" cy="82.99823" r=".067880347"/>
  <circle cx="187.56792" cy="82.497025" r=".12759404"/>
  <circle cx="186.64255" cy="81.184448" r=".27781358"/>
  <circle cx="186.30711" cy="81.274323" r=".069453396"/>
  <circle cx="186.73959" cy="79.896469" r=".1098327"/>
  <circle cx="186.92032" cy="79.392761" r=".057443619"/>
  <circle cx="187.14777" cy="77.813416" r=".7217809"/>
  <circle cx="186.38348" cy="78.018204" r=".069453396"/>
  <circle cx="186.5098" cy="77.175446" r=".18044522"/>
  <circle cx="187.35255" cy="77.049133" r=".069453396"/>
  <circle cx="188.72711" cy="77.585968" r=".057443619"/>
  <circle cx="189.2308" cy="77.405243" r=".1098327"/>
  <circle cx="190.5188" cy="77.308197" r=".27781358"/>
  <circle cx="190.60867" cy="76.972763" r=".069453396"/>
  <circle cx="191.83136" cy="78.233566" r=".12759404"/>
  <circle cx="192.33258" cy="79.023758" r=".067880347"/>
  <circle cx="223.54001" cy="33.956406" r="19.245008"/>
  <circle cx="221.52213" cy="53.155136" r=".059470348"/>
  <circle cx="220.18402" cy="52.989075" r=".081261493"/>
  <circle cx="218.52924" cy="52.656815" r=".11507416"/>
  <circle cx="216.44675" cy="52.029709" r=".17041013"/>
  <circle cx="213.78384" cy="50.854553" r=".26729178"/>
  <circle cx="213.61679" cy="51.143906" r=".066822946"/>
  <circle cx="210.3598" cy="48.594482" r=".45247731"/>
  <circle cx="209.98135" cy="49.014816" r=".11311933"/>
  <circle cx="208.68048" cy="46.425026" r=".15272164"/>
  <circle cx="206.13678" cy="44.004173" r=".85051727"/>
  <circle cx="206.13678" cy="44.936539" r=".081841059"/>
  <circle cx="205.21606" cy="44.535744" r=".21262932"/>
  <circle cx="204.98587" cy="44.668633" r=".05315733"/>
  <circle cx="205.32932" cy="43.537994" r=".081841059"/>
  <circle cx="204.85657" cy="39.719482" r=".30706844"/>
  <circle cx="204.48978" cy="39.832619" r=".076767109"/>
  <circle cx="204.56326" cy="37.990044" r=".15569539"/>
  <circle cx="202.44315" cy="33.956406" r="1.8518518"/>
  <circle cx="202.44315" cy="35.890099" r=".081841059"/>
  <circle cx="201.42813" cy="35.714478" r=".17819452"/>
  <circle cx="200.88797" cy="35.086319" r=".07044863"/>
  <circle cx="200.12833" cy="33.956406" r=".46296296"/>
  <circle cx="199.54962" cy="33.956406" r=".11574074"/>
  <circle cx="200.88797" cy="32.826508" r=".07044863"/>
  <circle cx="201.42813" cy="32.198334" r=".17819452"/>
  <circle cx="202.44315" cy="32.022713" r=".081841059"/>
  <circle cx="204.6824" cy="28.903528" r=".27781358"/>
  <circle cx="204.34695" cy="28.813654" r=".069453396"/>
  <circle cx="205.28998" cy="25.83098" r=".73212367"/>
  <circle cx="204.64069" cy="26.302721" r=".07044863"/>
  <circle cx="204.45395" cy="25.45875" r=".18303092"/>
  <circle cx="205.20609" cy="25.032801" r=".07044863"/>
  <circle cx="207.32266" cy="22.899614" r=".38290808"/>
  <circle cx="206.92719" cy="22.629984" r=".095727019"/>
  <circle cx="208.61823" cy="21.435556" r=".23398313"/>
  <circle cx="208.39417" cy="21.247553" r=".058495782"/>
  <circle cx="211.51187" cy="13.123078" r="4.8112521"/>
  <circle cx="209.07285" cy="17.347612" r=".066822946"/>
  <circle cx="208.21683" cy="16.782595" r=".11311933"/>
  <circle cx="207.16107" cy="15.635018" r=".21262932"/>
  <circle cx="206.93088" cy="15.767907" r=".05315733"/>
  <circle cx="206.841" cy="14.563844" r=".076767109"/>
  <circle cx="206.23767" cy="13.123078" r=".46296296"/>
  <circle cx="205.65897" cy="13.123078" r=".11574074"/>
  <circle cx="206.79749" cy="11.859857" r=".069453396"/>
  <circle cx="206.94937" cy="11.091722" r=".18303092"/>
  <circle cx="207.45752" cy="10.358872" r=".095727019"/>
  <circle cx="207.78143" cy="9.9928598" r=".058495782"/>
  <circle cx="208.50485" cy="7.9147425" r="1.202813"/>
  <circle cx="207.41714" cy="8.5427256" r=".05315733"/>
  <circle cx="207.18628" cy="7.9147425" r=".11574074"/>
  <circle cx="207.75308" cy="6.6126566" r=".30070326"/>
  <circle cx="209.16412" cy="6.7728434" r=".11574074"/>
  <circle cx="209.59253" cy="7.2867594" r=".05315733"/>
  <circle cx="210.66626" cy="8.3273096" r=".058495782"/>
  <circle cx="211.14517" cy="8.2298136" r=".095727019"/>
  <circle cx="212.03391" cy="8.1561518" r=".18303092"/>
  <circle cx="212.77509" cy="8.4086771" r=".069453396"/>
  <circle cx="214.14899" cy="8.5554743" r=".46296296"/>
  <circle cx="214.43832" cy="8.0542994" r=".11574074"/>
  <circle cx="215.09503" cy="9.7983789" r=".076767109"/>
  <circle cx="215.86267" cy="10.611138" r=".21262932"/>
  <circle cx="216.09286" cy="10.478241" r=".05315733"/>
  <circle cx="216.32864" cy="12.099244" r=".11311933"/>
  <circle cx="216.38995" cy="13.123078" r=".066822946"/>
  <circle cx="220.1575" cy="14.773347" r=".23398313"/>
  <circle cx="220.10672" cy="14.485314" r=".058495782"/>
  <circle cx="222.07321" cy="14.383378" r=".38290808"/>
  <circle cx="222.03745" cy="13.906075" r=".095727019"/>
  <circle cx="225.62817" cy="14.088716" r=".73212367"/>
  <circle cx="224.97888" cy="13.616975" r=".07044863"/>
  <circle cx="225.72385" cy="13.178575" r=".18303092"/>
  <circle cx="226.36136" cy="13.762277" r=".07044863"/>
  <circle cx="228.59286" cy="15.098809" r=".27781358"/>
  <circle cx="228.68277" cy="14.763375" r=".069453396"/>
  <circle cx="234.08844" cy="15.68599" r="1.8518518"/>
  <circle cx="232.41382" cy="14.719148" r=".081841059"/>
  <circle cx="233.07339" cy="13.927918" r=".17819452"/>
  <circle cx="233.88748" cy="13.774224" r=".07044863"/>
  <circle cx="235.24585" cy="13.681306" r=".46296296"/>
  <circle cx="235.53519" cy="13.180131" r=".11574074"/>
  <circle cx="235.84454" cy="14.904122" r=".07044863"/>
  <circle cx="236.11847" cy="15.68599" r=".17819452"/>
  <circle cx="235.76306" cy="16.652842" r=".081841059"/>
  <circle cx="236.52161" cy="19.538874" r=".15569539"/>
  <circle cx="237.87268" cy="20.657618" r=".30706844"/>
  <circle cx="238.15405" cy="20.396547" r=".076767109"/>
  <circle cx="240.94324" cy="23.908648" r=".85051727"/>
  <circle cx="240.94324" cy="22.97629" r=".081841059"/>
  <circle cx="241.86395" cy="23.377077" r=".21262932"/>
  <circle cx="242.09412" cy="23.244181" r=".05315733"/>
  <circle cx="241.75067" cy="24.374826" r=".081841059"/>
  <circle cx="241.76791" cy="27.322001" r=".15272164"/>
  <circle cx="242.80704" cy="29.861071" r=".45247731"/>
  <circle cx="243.36029" cy="29.743479" r=".11311933"/>
  <circle cx="243.05231" cy="33.956406" r=".26729178"/>
  <circle cx="243.38641" cy="33.956406" r=".066822946"/>
  <circle cx="242.73856" cy="36.850128" r=".17041013"/>
  <circle cx="242.24042" cy="38.967163" r=".11507416"/>
  <circle cx="241.70074" cy="40.566383" r=".081261493"/>
  <circle cx="241.17551" cy="41.808243" r=".059470348"/>
  <circle cx="270.8591" cy="32.078018" r="1.618034"/>
  <circle cx="269.25226" cy="32.600105" r=".071507677"/>
  <circle cx="269.12415" cy="31.70923" r=".15569539"/>
  <circle cx="269.50031" cy="31.090776" r=".061553672"/>
  <circle cx="270.2341" cy="30.154459" r=".4045085"/>
  <circle cx="270.07785" cy="29.673571" r=".10112713"/>
  <circle cx="271.37814" cy="30.480631" r=".061553672"/>
  <circle cx="272.04596" cy="30.759874" r=".15569539"/>
  <circle cx="272.46594" cy="31.555918" r=".071507677"/>
  <circle cx="287.94821" cy="25.731424" r="3.191149"/>
  <circle cx="285.14438" cy="27.406656" r=".075028412"/>
  <circle cx="284.69958" cy="26.472918" r=".14103019"/>
  <circle cx="284.70615" cy="25.731424" r=".050917156"/>
  <circle cx="284.60541" cy="24.700319" r=".30706844"/>
  <circle cx="284.23865" cy="24.587191" r=".076767109"/>
  <circle cx="285.45364" cy="23.551981" r=".12139852"/>
  <circle cx="285.91898" cy="23.186853" r=".063492656"/>
  <circle cx="287.06061" cy="21.842508" r=".79778725"/>
  <circle cx="286.22491" cy="21.584734" r=".076767109"/>
  <circle cx="286.83868" cy="20.870279" r=".19944681"/>
  <circle cx="287.70169" cy="21.24766" r=".076767109"/>
  <circle cx="288.67245" cy="22.558397" r=".063492656"/>
  <circle cx="289.25012" cy="22.685457" r=".12139852"/>
  <circle cx="290.5126" cy="23.352045" r=".30706844"/>
  <circle cx="290.79398" cy="23.090967" r=".076767109"/>
  <circle cx="290.86923" cy="24.324755" r=".050917156"/>
  <circle cx="291.19687" cy="24.989954" r=".14103019"/>
  <circle cx="291.20126" cy="26.02421" r=".075028412"/>
  <circle cx="333.16251" cy="14.98932" r="8.8388348"/>
  <circle cx="326.87512" cy="21.276697" r=".052851181"/>
  <circle cx="326.19083" cy="20.549044" r=".078265853"/>
  <circle cx="325.40155" cy="19.470118" r=".12276159"/>
  <circle cx="324.55862" cy="17.784891" r=".20781347"/>
  <circle cx="324.31158" cy="17.86516" r=".051953368"/>
  <circle cx="324.38889" cy="16.536348" r=".070141897"/>
  <circle cx="323.93304" cy="14.98932" r=".390625"/>
  <circle cx="323.44476" cy="14.98932" r=".09765625"/>
  <circle cx="324.40778" cy="12.991113" r=".14103019"/>
  <circle cx="324.68826" cy="12.235871" r=".071507677"/>
  <circle cx="324.77127" cy="10.144647" r=".85051727"/>
  <circle cx="323.96384" cy="10.610826" r=".081841059"/>
  <circle cx="323.85056" cy="9.6130686" r=".21262932"/>
  <circle cx="323.62039" cy="9.4801798" r=".05315733"/>
  <circle cx="324.77127" cy="9.2122889" r=".081841059"/>
  <circle cx="326.8223" cy="8.6491022" r=".12759404"/>
  <circle cx="327.76953" cy="7.5665216" r=".33624926"/>
  <circle cx="327.52246" cy="7.2264872" r=".084062316"/>
  <circle cx="329.25119" cy="6.8673639" r=".17586178"/>
  <circle cx="330.10269" cy="6.582551" r=".10746362"/>
  <circle cx="333.16251" cy="3.9407816" r="2.2097087"/>
  <circle cx="331.01154" cy="4.6396723" r=".051953368"/>
  <circle cx="330.85513" cy="3.9407816" r=".09765625"/>
  <circle cx="331.0647" cy="2.7296076" r=".21262932"/>
  <circle cx="330.83453" cy="2.5967188" r=".05315733"/>
  <circle cx="331.81427" cy="2.0850763" r=".084062316"/>
  <circle cx="333.16251" cy="1.1786433" r=".55242717"/>
  <circle cx="332.63806" cy=".87584788" r=".05315733"/>
  <circle cx="333.16251" cy=".48810679" r=".13810679"/>
  <circle cx="333.68695" cy=".87584788" r=".05315733"/>
  <circle cx="334.51074" cy="2.0850763" r=".084062316"/>
  <circle cx="335.26031" cy="2.7296076" r=".21262932"/>
  <circle cx="335.49048" cy="2.5967188" r=".05315733"/>
  <circle cx="335.46988" cy="3.9407816" r=".09765625"/>
  <circle cx="335.31348" cy="4.6396723" r=".051953368"/>
  <circle cx="336.22232" cy="6.582551" r=".10746362"/>
  <circle cx="337.07382" cy="6.8673639" r=".17586178"/>
  <circle cx="338.55548" cy="7.5665216" r=".33624926"/>
  <circle cx="338.80255" cy="7.2264872" r=".084062316"/>
  <circle cx="339.50272" cy="8.6491022" r=".12759404"/>
  <circle cx="341.55374" cy="10.144647" r=".85051727"/>
  <circle cx="341.55374" cy="9.2122889" r=".081841059"/>
  <circle cx="342.47446" cy="9.6130686" r=".21262932"/>
  <circle cx="342.70462" cy="9.4801798" r=".05315733"/>
  <circle cx="342.36118" cy="10.610826" r=".081841059"/>
  <circle cx="341.63675" cy="12.235871" r=".071507677"/>
  <circle cx="341.91724" cy="12.991113" r=".14103019"/>
  <circle cx="342.39197" cy="14.98932" r=".390625"/>
  <circle cx="342.88025" cy="14.98932" r=".09765625"/>
  <circle cx="341.93613" cy="16.536348" r=".070141897"/>
  <circle cx="341.76639" cy="17.784891" r=".20781347"/>
  <circle cx="342.01343" cy="17.86516" r=".051953368"/>
  <circle cx="340.92346" cy="19.470118" r=".12276159"/>
  <circle cx="340.13419" cy="20.549044" r=".078265853"/>
  <circle cx="339.44989" cy="21.276697" r=".052851181"/>
  <circle cx="368.16776" cy="25.303591" r="1.58713"/>
  <circle cx="366.53564" cy="25.01581" r=".070141897"/>
  <circle cx="366.83493" cy="24.185236" r=".15272164"/>
  <circle cx="367.44553" cy="23.822817" r=".060378008"/>
  <circle cx="368.51224" cy="23.349817" r=".39678249"/>
  <circle cx="368.59836" cy="22.861376" r=".099195622"/>
  <circle cx="369.35287" cy="24.159136" r=".060378008"/>
  <circle cx="369.80267" cy="24.708529" r=".15272164"/>
  <circle cx="369.79984" cy="25.591364" r=".070141897"/>
  <circle cx="396.41898" cy="29.144716" r="4.702282"/>
  <circle cx="391.75558" cy="30.135958" r=".065309472"/>
  <circle cx="391.60614" cy="29.144716" r=".11055728"/>
  <circle cx="391.74921" cy="27.62742" r=".20781347"/>
  <circle cx="391.50217" cy="27.547144" r=".051953368"/>
  <circle cx="392.3179" cy="26.694437" r=".075028412"/>
  <circle cx="392.96979" cy="25.313974" r=".45247731"/>
  <circle cx="392.59134" cy="24.893671" r=".11311933"/>
  <circle cx="394.25339" cy="24.894464" r=".067880347"/>
  <circle cx="394.91061" cy="24.502451" r=".17888544"/>
  <circle cx="395.77524" cy="24.39229" r=".0935589"/>
  <circle cx="396.2529" cy="24.38817" r=".057170913"/>
  <circle cx="398.23535" cy="23.554552" r="1.1755705"/>
  <circle cx="397.0679" cy="23.175226" r=".051953368"/>
  <circle cx="397.37305" cy="22.596865" r=".11311933"/>
  <circle cx="398.68942" cy="22.157007" r=".29389262"/>
  <circle cx="398.80295" cy="21.807619" r=".073473155"/>
  <circle cx="399.49588" cy="23.286615" r=".11311933"/>
  <circle cx="399.4028" cy="23.93387" r=".051953368"/>
  <circle cx="399.34921" cy="25.39422" r=".057170913"/>
  <circle cx="399.73322" cy="25.678308" r=".0935589"/>
  <circle cx="400.36795" cy="26.275637" r=".17888544"/>
  <circle cx="400.66925" cy="26.97912" r=".067880347"/>
  <circle cx="401.46112" cy="28.072985" r=".45247731"/>
  <circle cx="402.01434" cy="27.9554" r=".11311933"/>
  <circle cx="401.17706" cy="29.572954" r=".075028412"/>
  <circle cx="401.08878" cy="30.66202" r=".20781347"/>
  <circle cx="401.33582" cy="30.742296" r=".051953368"/>
  <circle cx="400.31265" cy="31.973635" r=".11055728"/>
  <circle cx="399.60913" cy="32.687729" r=".065309472"/>
  <circle cx="434.55139" cy="48.217445" r="2.7777777"/>
  <circle cx="431.77045" cy="47.626335" r=".065309472"/>
  <circle cx="432.03946" cy="46.767189" r=".12276159"/>
  <circle cx="433.02887" cy="45.580338" r=".26729178"/>
  <circle cx="432.86182" cy="45.290993" r=".066822946"/>
  <circle cx="434.25" cy="45.349792" r=".10567295"/>
  <circle cx="434.76312" cy="45.392326" r=".055268023"/>
  <circle cx="436.28751" cy="45.210419" r=".69444442"/>
  <circle cx="435.90686" cy="44.551132" r=".066822946"/>
  <circle cx="436.72153" cy="44.458656" r=".1736111"/>
  <circle cx="437.04877" cy="45.210419" r=".066822946"/>
  <circle cx="436.89218" cy="46.621536" r=".055268023"/>
  <circle cx="437.18555" cy="47.044647" r=".10567295"/>
  <circle cx="437.59647" cy="48.217445" r=".26729178"/>
  <circle cx="437.93057" cy="48.217445" r=".066822946"/>
  <circle cx="437.06332" cy="49.667717" r=".12276159"/>
  <circle cx="436.4538" cy="50.330276" r=".065309472"/>
  <circle cx="458.96463" cy="66.077271" r="1.770954"/>
  <circle cx="457.51889" cy="64.924301" r=".078265853"/>
  <circle cx="458.2554" cy="64.270111" r=".17041013"/>
  <circle cx="459.04709" cy="64.240799" r=".067371093"/>
  <circle cx="460.34488" cy="64.346542" r=".4427385"/>
  <circle cx="460.68991" cy="63.913849" r=".11068463"/>
  <circle cx="460.73672" cy="65.588211" r=".067371093"/>
  <circle cx="460.88431" cy="66.366623" r=".17041013"/>
  <circle cx="460.41043" cy="67.23024" r=".078265853"/>
  <circle cx="475.42947" cy="81.561188" r="1.1958858"/>
  <circle cx="474.54648" cy="80.678192" r=".052851181"/>
  <circle cx="475.09018" cy="80.294891" r=".11507416"/>
  <circle cx="476.48648" cy="80.50415" r=".29897144"/>
  <circle cx="476.75076" cy="80.239899" r=".074742861"/>
  <circle cx="476.69577" cy="81.900482" r=".11507416"/>
  <circle cx="476.31247" cy="82.444168" r=".052851181"/>
  <circle cx="487.01834" cy="94.727798" r=".84449416"/>
  <circle cx="486.85757" cy="93.816116" r=".081261493"/>
  <circle cx="487.82693" cy="94.049271" r=".21112354"/>
  <circle cx="488.02914" cy="93.879623" r=".052780885"/>
  <circle cx="487.88821" cy="95.044434" r=".081261493"/>
  <circle cx="495.46591" cy="105.90784" r=".61803401"/>
  <circle cx="495.39511" cy="105.23404" r=".059470348"/>
  <circle cx="496.09091" cy="105.45375" r=".1545085"/>
  <circle cx="496.08481" cy="106.1834" r=".059470348"/>
 </g>
</svg>
